<mxfile host="app.diagrams.net" modified="2024-07-09T05:51:02.178Z" agent="Mozilla/5.0 (Windows NT 10.0; Win64; x64) AppleWebKit/537.36 (KHTML, like Gecko) Chrome/126.0.0.0 Safari/537.36" etag="JW9Isc5rrj9F7b7T_WKc" version="24.5.1" type="github">
  <diagram name="Page-1" id="74e2e168-ea6b-b213-b513-2b3c1d86103e">
    <mxGraphModel dx="1235" dy="727" grid="1" gridSize="10" guides="1" tooltips="1" connect="1" arrows="1" fold="1" page="1" pageScale="1" pageWidth="1100" pageHeight="850" background="none" math="0" shadow="0">
      <root>
        <mxCell id="0" />
        <mxCell id="1" parent="0" />
        <mxCell id="77e6c97f196da883-1" value="Payment workflow" style="swimlane;html=1;childLayout=stackLayout;startSize=20;rounded=0;shadow=0;labelBackgroundColor=none;strokeWidth=1;fontFamily=Verdana;fontSize=13;align=center;swimlaneLine=1;fillStyle=auto;" parent="1" vertex="1">
          <mxGeometry x="70" y="90" width="1230" height="460" as="geometry" />
        </mxCell>
        <mxCell id="77e6c97f196da883-3" value="Customer Portal/Mobile app" style="swimlane;html=1;startSize=20;" parent="77e6c97f196da883-1" vertex="1">
          <mxGeometry y="20" width="320" height="440" as="geometry" />
        </mxCell>
        <mxCell id="77e6c97f196da883-11" value="Make payment" style="rounded=1;whiteSpace=wrap;html=1;shadow=0;labelBackgroundColor=none;strokeWidth=1;fontFamily=Verdana;fontSize=11;align=center;" parent="77e6c97f196da883-3" vertex="1">
          <mxGeometry x="85" y="70" width="150" height="80" as="geometry" />
        </mxCell>
        <mxCell id="77e6c97f196da883-4" value="CyberSource" style="swimlane;html=1;startSize=20;" parent="77e6c97f196da883-1" vertex="1">
          <mxGeometry x="320" y="20" width="400" height="440" as="geometry" />
        </mxCell>
        <mxCell id="8T-MgHasqNdfyZr7QTSr-6" value="Processing" style="rounded=1;whiteSpace=wrap;html=1;shadow=0;labelBackgroundColor=none;strokeWidth=1;fontFamily=Verdana;fontSize=11;align=center;" vertex="1" parent="77e6c97f196da883-4">
          <mxGeometry x="110" y="70" width="150" height="80" as="geometry" />
        </mxCell>
        <mxCell id="8T-MgHasqNdfyZr7QTSr-7" value="" style="endArrow=classic;html=1;rounded=0;exitX=1;exitY=0.5;exitDx=0;exitDy=0;entryX=0;entryY=0.5;entryDx=0;entryDy=0;" edge="1" parent="77e6c97f196da883-1" source="77e6c97f196da883-11" target="8T-MgHasqNdfyZr7QTSr-6">
          <mxGeometry width="50" height="50" relative="1" as="geometry">
            <mxPoint x="510" y="210" as="sourcePoint" />
            <mxPoint x="560" y="160" as="targetPoint" />
          </mxGeometry>
        </mxCell>
        <mxCell id="8T-MgHasqNdfyZr7QTSr-11" value="1" style="edgeLabel;html=1;align=center;verticalAlign=middle;resizable=0;points=[];fontSize=13;" vertex="1" connectable="0" parent="8T-MgHasqNdfyZr7QTSr-7">
          <mxGeometry x="-0.4421" y="-1" relative="1" as="geometry">
            <mxPoint as="offset" />
          </mxGeometry>
        </mxCell>
        <mxCell id="8T-MgHasqNdfyZr7QTSr-10" value="" style="endArrow=classic;html=1;rounded=1;exitX=1;exitY=0.5;exitDx=0;exitDy=0;edgeStyle=orthogonalEdgeStyle;curved=0;entryX=0;entryY=0.5;entryDx=0;entryDy=0;" edge="1" parent="77e6c97f196da883-1" source="8T-MgHasqNdfyZr7QTSr-6" target="8T-MgHasqNdfyZr7QTSr-8">
          <mxGeometry width="50" height="50" relative="1" as="geometry">
            <mxPoint x="510" y="210" as="sourcePoint" />
            <mxPoint x="710" y="320" as="targetPoint" />
            <Array as="points">
              <mxPoint x="790" y="130" />
              <mxPoint x="790" y="220" />
            </Array>
          </mxGeometry>
        </mxCell>
        <mxCell id="8T-MgHasqNdfyZr7QTSr-12" value="2. call webhook with:&amp;nbsp;&lt;br&gt;- Accept&lt;div&gt;- Declined&lt;/div&gt;&lt;div&gt;- Cancel&lt;/div&gt;&lt;div&gt;- Error&lt;/div&gt;&lt;div&gt;- no card details&lt;/div&gt;" style="edgeLabel;html=1;align=left;verticalAlign=middle;resizable=0;points=[];labelBorderColor=none;spacingTop=0;textShadow=1;" vertex="1" connectable="0" parent="8T-MgHasqNdfyZr7QTSr-10">
          <mxGeometry x="-0.6684" y="4" relative="1" as="geometry">
            <mxPoint x="-38" y="14" as="offset" />
          </mxGeometry>
        </mxCell>
        <mxCell id="8T-MgHasqNdfyZr7QTSr-14" value="" style="endArrow=classic;html=1;rounded=1;edgeStyle=orthogonalEdgeStyle;curved=0;entryX=0.5;entryY=1;entryDx=0;entryDy=0;exitX=0.5;exitY=1;exitDx=0;exitDy=0;dashed=1;" edge="1" parent="77e6c97f196da883-1" source="8T-MgHasqNdfyZr7QTSr-8" target="77e6c97f196da883-11">
          <mxGeometry width="50" height="50" relative="1" as="geometry">
            <mxPoint x="790" y="240" as="sourcePoint" />
            <mxPoint x="620" y="330" as="targetPoint" />
            <Array as="points">
              <mxPoint x="915" y="390" />
              <mxPoint x="160" y="390" />
            </Array>
          </mxGeometry>
        </mxCell>
        <mxCell id="8T-MgHasqNdfyZr7QTSr-15" value="5. Redirect&amp;nbsp;" style="edgeLabel;html=1;align=left;verticalAlign=middle;resizable=0;points=[];labelBorderColor=none;spacingTop=0;textShadow=1;" vertex="1" connectable="0" parent="8T-MgHasqNdfyZr7QTSr-14">
          <mxGeometry x="-0.6684" y="4" relative="1" as="geometry">
            <mxPoint x="-102" y="-4" as="offset" />
          </mxGeometry>
        </mxCell>
        <mxCell id="8T-MgHasqNdfyZr7QTSr-16" value="3. Retrieve Card details with existing/new SubscriptionId:&lt;div&gt;- Masked card number&lt;/div&gt;&lt;div&gt;- Card expiry date_time&lt;/div&gt;&lt;div&gt;- Card type&lt;/div&gt;&lt;div&gt;- Card holder name&lt;/div&gt;" style="edgeLabel;html=1;align=left;verticalAlign=middle;resizable=0;points=[];labelBorderColor=none;textShadow=1;" vertex="1" connectable="0" parent="8T-MgHasqNdfyZr7QTSr-14">
          <mxGeometry x="-0.9435" y="3" relative="1" as="geometry">
            <mxPoint x="22" y="-152" as="offset" />
          </mxGeometry>
        </mxCell>
        <mxCell id="77e6c97f196da883-5" value="Backend" style="swimlane;html=1;startSize=20;" parent="77e6c97f196da883-1" vertex="1">
          <mxGeometry x="720" y="20" width="510" height="440" as="geometry" />
        </mxCell>
        <mxCell id="8T-MgHasqNdfyZr7QTSr-8" value="/end-payment" style="rounded=1;whiteSpace=wrap;html=1;shadow=0;labelBackgroundColor=none;strokeWidth=1;fontFamily=Verdana;fontSize=11;align=center;" vertex="1" parent="77e6c97f196da883-5">
          <mxGeometry x="120" y="160" width="150" height="80" as="geometry" />
        </mxCell>
        <mxCell id="8T-MgHasqNdfyZr7QTSr-17" value="" style="shape=cylinder3;whiteSpace=wrap;html=1;boundedLbl=1;backgroundOutline=1;size=15;" vertex="1" parent="77e6c97f196da883-5">
          <mxGeometry x="390" y="340" width="60" height="80" as="geometry" />
        </mxCell>
        <mxCell id="8T-MgHasqNdfyZr7QTSr-19" value="" style="endArrow=classic;html=1;rounded=1;entryX=0;entryY=0;entryDx=0;entryDy=52.5;entryPerimeter=0;exitX=0.75;exitY=1;exitDx=0;exitDy=0;edgeStyle=orthogonalEdgeStyle;dashed=1;curved=0;" edge="1" parent="77e6c97f196da883-5" source="8T-MgHasqNdfyZr7QTSr-8" target="8T-MgHasqNdfyZr7QTSr-17">
          <mxGeometry width="50" height="50" relative="1" as="geometry">
            <mxPoint x="-120" y="260" as="sourcePoint" />
            <mxPoint x="-70" y="210" as="targetPoint" />
          </mxGeometry>
        </mxCell>
        <mxCell id="8T-MgHasqNdfyZr7QTSr-20" value="&lt;span style=&quot;&quot;&gt;4. Save database with :&lt;/span&gt;&lt;div style=&quot;&quot;&gt;- Masked card number&lt;/div&gt;&lt;div style=&quot;&quot;&gt;- Card expiry date_time&lt;/div&gt;&lt;div style=&quot;&quot;&gt;- Card type&lt;/div&gt;&lt;div style=&quot;&quot;&gt;- Card holder name&lt;/div&gt;&lt;div style=&quot;&quot;&gt;&lt;b&gt;- Existing/New SubscriptionId&lt;/b&gt;&lt;/div&gt;" style="edgeLabel;html=1;align=left;verticalAlign=middle;resizable=0;points=[];" vertex="1" connectable="0" parent="8T-MgHasqNdfyZr7QTSr-19">
          <mxGeometry x="-0.7028" y="5" relative="1" as="geometry">
            <mxPoint x="-18" y="14" as="offset" />
          </mxGeometry>
        </mxCell>
      </root>
    </mxGraphModel>
  </diagram>
</mxfile>
